# Blender v2.83.4 OBJ File: 'TV.blend'
# www.blender.org
mtllib TV.mtl
o Cube
v 0.711336 0.711336 -0.121692
v 0.711336 -0.711336 -0.121692
v 1.000000 1.000000 0.238502
v 1.000000 -1.000000 0.238502
v -0.711336 0.711336 -0.121692
v -0.711336 -0.711336 -0.121692
v -1.000000 1.000000 0.238502
v -1.000000 -1.000000 0.238502
v -1.000000 -1.000000 0.101053
v 1.000000 1.000000 0.101053
v -1.000000 1.000000 0.101053
v 1.000000 -1.000000 0.101053
v -0.725320 0.725320 -0.105579
v -0.935063 0.935063 0.063387
v -0.739817 0.739817 -0.089770
v -0.757087 0.757087 -0.072535
v -0.776703 0.776703 -0.054299
v -0.798183 0.798183 -0.035510
v -0.820997 0.820997 -0.016632
v -0.844585 0.844585 0.001870
v -0.868365 0.868365 0.019542
v -0.891751 0.891751 0.035948
v -0.914168 0.914168 0.050684
v 0.725320 -0.725320 -0.105579
v 0.935063 -0.935063 0.063387
v 0.739817 -0.739817 -0.089770
v 0.757087 -0.757087 -0.072535
v 0.776703 -0.776703 -0.054299
v 0.798183 -0.798183 -0.035510
v 0.820997 -0.820997 -0.016632
v 0.844585 -0.844585 0.001870
v 0.868365 -0.868364 0.019542
v 0.891751 -0.891751 0.035948
v 0.914168 -0.914168 0.050684
v -0.935063 -0.935063 0.063387
v -0.725320 -0.725320 -0.105579
v -0.914168 -0.914168 0.050684
v -0.891751 -0.891751 0.035948
v -0.868365 -0.868364 0.019542
v -0.844585 -0.844585 0.001870
v -0.820997 -0.820997 -0.016632
v -0.798183 -0.798183 -0.035510
v -0.776703 -0.776703 -0.054299
v -0.757087 -0.757087 -0.072535
v -0.739817 -0.739817 -0.089770
v 0.935063 0.935063 0.063387
v 0.725320 0.725320 -0.105579
v 0.914168 0.914168 0.050684
v 0.891751 0.891751 0.035948
v 0.868365 0.868365 0.019542
v 0.844585 0.844585 0.001870
v 0.820997 0.820997 -0.016632
v 0.798183 0.798183 -0.035510
v 0.776703 0.776703 -0.054299
v 0.757087 0.757087 -0.072535
v 0.739817 0.739817 -0.089770
vt 0.625000 0.625000
vt 0.875000 0.625000
vt 0.875000 0.750000
vt 0.625000 0.750000
vt 0.375000 0.750000
vt 0.625000 1.000000
vt 0.375000 1.000000
vt 0.625000 0.603862
vt 0.875000 0.603862
vt 0.125000 0.625000
vt 0.375000 0.625000
vt 0.125000 0.750000
vt 0.375000 0.250000
vt 0.625000 0.250000
vt 0.625000 0.500000
vt 0.375000 0.500000
vt 0.125000 0.500000
vt 0.375000 0.509042
vt 0.125000 0.509042
vt 0.375000 0.000000
vt 0.625000 0.000000
vt 0.625000 0.125000
vt 0.375000 0.125000
vt 0.625000 0.509042
vt 0.625000 0.146138
vt 0.375000 0.146138
vt 0.375000 0.603862
vt 0.125000 0.603862
vt 0.375000 0.240958
vt 0.625000 0.240958
vt 0.625000 0.596909
vt 0.875061 0.596909
vt 0.625000 0.589163
vt 0.875242 0.589163
vt 0.625000 0.580813
vt 0.875540 0.580813
vt 0.625000 0.572066
vt 0.875944 0.572066
vt 0.625000 0.562500
vt 0.875000 0.562500
vt 0.625000 0.550137
vt 0.876498 0.550137
vt 0.625000 0.538832
vt 0.875853 0.538832
vt 0.625000 0.528040
vt 0.875383 0.528040
vt 0.625000 0.518028
vt 0.875097 0.518028
vt 0.875000 0.509042
vt 0.124939 0.596909
vt 0.375000 0.596909
vt 0.124758 0.589163
vt 0.375000 0.589163
vt 0.124460 0.580813
vt 0.375000 0.580813
vt 0.124056 0.572066
vt 0.375000 0.572066
vt 0.125000 0.562500
vt 0.375000 0.562500
vt 0.123502 0.550137
vt 0.375000 0.550137
vt 0.124147 0.538832
vt 0.375000 0.538832
vt 0.124617 0.528040
vt 0.375000 0.528040
vt 0.124903 0.518028
vt 0.375000 0.518028
vt 0.374903 0.231972
vt 0.625096 0.231972
vt 0.374617 0.221960
vt 0.625383 0.221960
vt 0.374147 0.211168
vt 0.625853 0.211168
vt 0.373502 0.199863
vt 0.626498 0.199863
vt 0.375000 0.187500
vt 0.625000 0.187500
vt 0.374056 0.177934
vt 0.625944 0.177934
vt 0.374460 0.169187
vt 0.625540 0.169187
vt 0.374758 0.160837
vt 0.625242 0.160837
vt 0.374939 0.153091
vt 0.625061 0.153091
vt 0.875000 0.500000
vn 0.0000 1.0000 0.0000
vn 0.0000 0.0000 1.0000
vn 0.0000 0.5018 -0.8650
vn 0.0000 -1.0000 0.0000
vn 1.0000 0.0000 0.0000
vn 0.0000 0.0000 -1.0000
vn 0.0000 -0.7552 -0.6555
vn -1.0000 0.0000 0.0000
vn 0.7552 0.0000 -0.6555
vn -0.5018 0.0000 -0.8650
vn 0.5018 0.0000 -0.8650
vn 0.0000 -0.5018 -0.8650
vn -0.7552 0.0000 -0.6555
vn 0.0000 0.5195 -0.8545
vn 0.0000 0.5493 -0.8356
vn 0.0000 0.5743 -0.8186
vn 0.0000 0.5965 -0.8026
vn 0.0000 0.6172 -0.7868
vn 0.0000 0.6375 -0.7704
vn 0.0000 0.6584 -0.7527
vn 0.0000 0.6809 -0.7324
vn 0.0000 0.7064 -0.7078
vn 0.0000 0.7370 -0.6759
vn 0.0000 -0.5195 -0.8545
vn 0.0000 -0.5493 -0.8356
vn 0.0000 -0.5743 -0.8186
vn 0.0000 -0.5965 -0.8026
vn 0.0000 -0.6172 -0.7868
vn 0.0000 -0.6375 -0.7704
vn 0.0000 -0.6584 -0.7527
vn 0.0000 -0.6809 -0.7324
vn 0.0000 -0.7064 -0.7078
vn 0.0000 -0.7370 -0.6759
vn 0.5195 0.0000 -0.8545
vn 0.5493 0.0000 -0.8356
vn 0.5743 0.0000 -0.8186
vn 0.5965 0.0000 -0.8026
vn 0.6172 0.0000 -0.7868
vn 0.6375 0.0000 -0.7704
vn 0.6584 0.0000 -0.7527
vn 0.6809 0.0000 -0.7324
vn 0.7064 0.0000 -0.7078
vn 0.7370 0.0000 -0.6759
vn -0.7370 0.0000 -0.6759
vn -0.7064 0.0000 -0.7078
vn -0.6809 0.0000 -0.7324
vn -0.6584 0.0000 -0.7527
vn -0.6375 0.0000 -0.7704
vn -0.6172 0.0000 -0.7868
vn -0.5965 0.0000 -0.8026
vn -0.5743 0.0000 -0.8186
vn -0.5493 0.0000 -0.8356
vn -0.5195 0.0000 -0.8545
vn 0.0000 0.7552 -0.6555
usemtl Material
s off
f 10/1/1 11/2/1 7/3/1 3/4/1
f 4/5/2 3/4/2 7/6/2 8/7/2
f 46/8/3 14/9/3 11/2/3 10/1/3
f 9/10/4 12/11/4 4/5/4 8/12/4
f 12/11/5 10/1/5 3/4/5 4/5/5
f 6/13/6 5/14/6 1/15/6 2/16/6
f 6/17/7 2/16/7 24/18/7 36/19/7
f 8/20/8 7/21/8 11/22/8 9/23/8
f 2/16/9 1/15/9 47/24/9 24/18/9
f 9/23/10 11/22/10 14/25/10 35/26/10
f 25/27/11 46/8/11 10/1/11 12/11/11
f 35/28/12 25/27/12 12/11/12 9/10/12
f 36/29/13 13/30/13 5/14/13 6/13/13
f 14/9/14 46/8/14 48/31/14 23/32/14
f 23/32/15 48/31/15 49/33/15 22/34/15
f 22/34/16 49/33/16 50/35/16 21/36/16
f 21/36/17 50/35/17 51/37/17 20/38/17
f 20/38/18 51/37/18 52/39/18 19/40/18
f 19/40/19 52/39/19 53/41/19 18/42/19
f 18/42/20 53/41/20 54/43/20 17/44/20
f 17/44/21 54/43/21 55/45/21 16/46/21
f 16/46/22 55/45/22 56/47/22 15/48/22
f 15/48/23 56/47/23 47/24/23 13/49/23
f 25/27/24 35/28/24 37/50/24 34/51/24
f 34/51/25 37/50/25 38/52/25 33/53/25
f 33/53/26 38/52/26 39/54/26 32/55/26
f 32/55/27 39/54/27 40/56/27 31/57/27
f 31/57/28 40/56/28 41/58/28 30/59/28
f 30/59/29 41/58/29 42/60/29 29/61/29
f 29/61/30 42/60/30 43/62/30 28/63/30
f 28/63/31 43/62/31 44/64/31 27/65/31
f 27/65/32 44/64/32 45/66/32 26/67/32
f 26/67/33 45/66/33 36/19/33 24/18/33
f 46/8/34 25/27/34 34/51/34 48/31/34
f 48/31/35 34/51/35 33/53/35 49/33/35
f 49/33/36 33/53/36 32/55/36 50/35/36
f 50/35/37 32/55/37 31/57/37 51/37/37
f 51/37/38 31/57/38 30/59/38 52/39/38
f 52/39/39 30/59/39 29/61/39 53/41/39
f 53/41/40 29/61/40 28/63/40 54/43/40
f 54/43/41 28/63/41 27/65/41 55/45/41
f 55/45/42 27/65/42 26/67/42 56/47/42
f 56/47/43 26/67/43 24/18/43 47/24/43
f 13/30/44 36/29/44 45/68/44 15/69/44
f 15/69/45 45/68/45 44/70/45 16/71/45
f 16/71/46 44/70/46 43/72/46 17/73/46
f 17/73/47 43/72/47 42/74/47 18/75/47
f 18/75/48 42/74/48 41/76/48 19/77/48
f 19/77/49 41/76/49 40/78/49 20/79/49
f 20/79/50 40/78/50 39/80/50 21/81/50
f 21/81/51 39/80/51 38/82/51 22/83/51
f 22/83/52 38/82/52 37/84/52 23/85/52
f 23/85/53 37/84/53 35/26/53 14/25/53
f 1/15/54 5/86/54 13/49/54 47/24/54
